<mxfile host="app.diagrams.net" modified="2021-09-10T09:04:21.935Z" agent="5.0 (Windows NT 10.0; Win64; x64) AppleWebKit/537.36 (KHTML, like Gecko) Chrome/93.0.4577.63 Safari/537.36" etag="KZhDU1e0QuuBtk76ef7v" version="15.1.2" type="github">
  <diagram id="ekojfM5daiF6v0hRuksb" name="第 1 页">
    <mxGraphModel dx="782" dy="523" grid="1" gridSize="10" guides="1" tooltips="1" connect="1" arrows="1" fold="1" page="1" pageScale="1" pageWidth="827" pageHeight="1169" math="0" shadow="0">
      <root>
        <mxCell id="0" />
        <mxCell id="1" parent="0" />
        <mxCell id="PJY1jU5YXkeDaMY-Jb8y-4" style="edgeStyle=orthogonalEdgeStyle;rounded=0;orthogonalLoop=1;jettySize=auto;html=1;exitX=0.5;exitY=1;exitDx=0;exitDy=0;entryX=0.5;entryY=0;entryDx=0;entryDy=0;" edge="1" parent="1" source="PJY1jU5YXkeDaMY-Jb8y-1" target="PJY1jU5YXkeDaMY-Jb8y-3">
          <mxGeometry relative="1" as="geometry" />
        </mxCell>
        <mxCell id="PJY1jU5YXkeDaMY-Jb8y-1" value="10 s 时间窗&lt;br&gt;cf_pay_instruction" style="rounded=1;whiteSpace=wrap;html=1;fillColor=#dae8fc;strokeColor=#6c8ebf;sketch=1;" vertex="1" parent="1">
          <mxGeometry x="240" y="200" width="120" height="60" as="geometry" />
        </mxCell>
        <mxCell id="PJY1jU5YXkeDaMY-Jb8y-5" style="edgeStyle=orthogonalEdgeStyle;rounded=0;orthogonalLoop=1;jettySize=auto;html=1;exitX=0.5;exitY=1;exitDx=0;exitDy=0;" edge="1" parent="1" source="PJY1jU5YXkeDaMY-Jb8y-2">
          <mxGeometry relative="1" as="geometry">
            <mxPoint x="390" y="320" as="targetPoint" />
          </mxGeometry>
        </mxCell>
        <mxCell id="PJY1jU5YXkeDaMY-Jb8y-2" value="10 s 时间窗&lt;br&gt;cf_account_log" style="rounded=1;whiteSpace=wrap;html=1;fillColor=#dae8fc;strokeColor=#6c8ebf;sketch=1;" vertex="1" parent="1">
          <mxGeometry x="414" y="200" width="120" height="60" as="geometry" />
        </mxCell>
        <mxCell id="PJY1jU5YXkeDaMY-Jb8y-3" value="10 s 时间窗的&lt;br&gt;错误表" style="rounded=1;whiteSpace=wrap;html=1;sketch=1;fillColor=#dae8fc;strokeColor=#6c8ebf;" vertex="1" parent="1">
          <mxGeometry x="330" y="320" width="120" height="60" as="geometry" />
        </mxCell>
        <mxCell id="PJY1jU5YXkeDaMY-Jb8y-6" value="带有计数字段" style="text;html=1;strokeColor=none;fillColor=none;align=center;verticalAlign=middle;whiteSpace=wrap;rounded=0;sketch=1;" vertex="1" parent="1">
          <mxGeometry x="480" y="340" width="116" height="20" as="geometry" />
        </mxCell>
      </root>
    </mxGraphModel>
  </diagram>
</mxfile>
